<svg width="1602" height="3153" xmlns="http://www.w3.org/2000/svg">
  <rect width="126" height="263" rx="10" ry="10" transform="matrix(7.6 0 0 7.6 315.2 76.8)" fill="#2aab9c"/>
  <path d="M1108.6 1555.5c-5.7-3.8-13.3-7.6-20.9-9.5-13.3-5.7-26.6-7.6-41.8-11.4-28.5-5.7-55.2-9.5-83.7-11.4-45.6-5.7-91.3-5.7-137.0-7.6 3.8-9.5 5.7-19.0 7.6-28.5 7.6-36.1 7.6-74.2 3.8-112.3-9.5-68.5-34.2-131.3-62.8-192.2-11.4-43.7-19.0-87.5-11.4-131.3 5.7-41.8 34.2-76.1 72.3-97.0-38.0 24.7-60.9 60.9-53.3 110.4 7.6 49.4 79.9 62.8 102.7-1.9 15.2-47.5 1.9-108.5 72.3-146.5l28.5-5.7c-49.4 0-98.9 3.8-146.5 22.8-22.8 9.5-45.6 22.8-62.8 41.8-17.1 19.0-28.5 43.7-32.3 70.4-3.8 22.8-3.8 47.5 0 68.5-26.6-49.4-55.2-98.9-81.8-146.5-34.2-62.8-68.5-127.5-87.5-194.1-20.9-66.6-22.8-133.2 1.9-197.9 22.8-62.8 66.6-119.9 118.0-165.6 1.9-1.9 5.7-3.8 7.6-5.7-138.9 138.9-125.6 306.4-66.6 338.8 74.2 41.8 182.7-24.7 217.0-138.9 43.7-146.5 0-270.3 177.0-361.6 14.3-6.4 34.2-7.6 51.3-11.4-144.6 15.2-293.1 57.1-413.0 150.3-59.0 45.6-110.4 108.5-140.8 180.8-15.2 36.1-22.8 76.1-22.8 116.1 0 39.9 5.7 78.0 17.1 116.1 47.5 148.4 137.0 266.4 207.4 390.2 36.1 62.8 68.5 127.5 83.7 196.0 11.4 43.7 11.4 91.3 3.8 135.1h-20.9 20.9c-3.8 24.7-13.3 49.4-22.8 72.3 15.2-22.8 22.8-47.5 32.4-72.2 45.6 1.9 95.1 3.7 140.8 9.4 28.5 3.8 55.2 7.6 83.7 15.2 13.3 3.8 26.6 7.6 39.9 13.3 11.4 5.7 26.6 13.3 28.5 20.9-1.9 7.6-17.1 15.2-28.5 19.0l-39.9 11.4c-26.6 5.7-55.2 9.5-83.7 11.4-55.2 5.7-112.3 7.6-167.5 7.6-55.2 0-112.3-1.9-167.5-7.6-28.5-3.8-55.2-5.7-83.7-11.4-13.3-3.8-26.6-5.7-39.9-11.4-11.4-3.8-26.6-11.4-28.5-19.0 1.9-7.6 15.2-17.1 28.5-20.9 13.3-5.7 26.6-9.5 39.9-13.3 26.6-7.6 55.2-11.4 83.7-15.2 55.2-7.6 112.3-9.5 169.4-9.5-57.1 0-112.3 1.9-169.4 7.6-28.5 3.8-57.1 5.7-83.7 11.4-13.3 3.8-28.5 5.7-41.8 11.4-7.6 1.9-13.3 5.7-20.9 9.5-5.7 3.8-13.3 9.5-15.2 20.9 0 11.4 7.6 17.1 15.2 20.9 0 0 1.9 0 1.9 1.9l165.6 317.8s38.0 26.6 146.5 26.6c108.5 0 146.5-26.6 146.5-26.6l165.6-317.8s1.9 0 1.9-1.9c5.7-3.8 13.3-9.5 15.2-20.9-3.8-11.4-11.4-17.1-19.0-20.9z" fill="#fff"/>
  <path d="M347.1 2539.5h-66.4l-105.4-148.0-45.3 42.9v105.0H76.8v-283.4h52.9v106.2l113.0-106.2h76.4l-103.8 98.3zm251.8 0h-62.8l-100.7-138.5h-22.6v138.5h-51.7v-283.4h101.5c19.1 0 37.0 7.5 50.9 21.4s21.4 31.8 21.4 50.9c0 28.2-16.7 53.7-41.4 65.6zM412.7 2349.2h49.7c11.1 0 20.7-9.1 20.7-20.7s-9.5-20.7-20.7-20.7h-49.7v41.4zm263.3 190.2h-53.3v-283.4h53.3v283.4zm155.5 2.3c-9.1 0-18.7-1.1-28.6-3.1-29.4-5.9-58.1-20.3-83.1-42.1l-7.5-6.7 35.0-39.8 7.5 6.7c18.3 15.9 38.6 26.6 58.5 30.6h.3c5.9 1.1 11.9 1.9 17.9 1.9 9.9 0 19.1-1.9 26.6-5.5 9.5-3.9 20.7-12.7 20.7-29.0 0-8.7-4.3-15.5-13.5-21.0-11.1-6.7-26.2-10.3-37.0-12.3-4.7-.7-45.3-9.1-64.0-19.5-12.3-7.5-21.8-17.1-28.6-28.2-6.7-11.5-9.9-24.2-9.9-38.2 0-15.1 4.7-30.2 13.9-44.1 8.7-11.5 20.7-21.0 35.0-27.8s30.2-10.3 47.3-10.3c6.7 0 13.9.7 21.0 1.5 26.2 4.7 52.1 16.7 74.8 35.8l7.5 6.3-33.8 41.0-7.5-6.3c-25.8-21.0-48.1-25.8-62.4-25.8-9.1 0-17.5 1.9-24.6 5.1-11.1 5.1-18.3 14.7-18.3 24.2 0 8.7 3.1 14.3 10.7 19.5s19.1 9.1 37.4 13.1c2.3.3 5.5 1.1 8.7 1.9 16.7 3.1 39.0 7.9 54.5 17.1 13.5 7.1 23.8 17.1 31.0 28.6s10.7 25.0 10.7 39.4c0 17.9-4.7 33.8-14.3 47.3-8.3 11.5-20.7 21.4-37.0 29.4-13.9 7.1-29.4 10.3-48.9 10.3zm234.7-2.3h-53.3v-230.8H943.3v-52.5h192.6v52.5h-69.6v230.8zm169.4 0h-53.3v-283.4h53.3v283.4zm290.0 0h-51.3l-125.7-185.9v185.9h-53.3v-283.4h51.7l125.3 185.5v-185.5h53.3v283.4zM182.2 2833.0c-58.0 0-105.3-47.3-105.3-105.6 0-58.0 47.3-105.3 105.3-105.3 14.1 0 28.0 2.8 40.7 8.2s24.3 13.0 33.9 22.9l5.3 5.3-28.0 24.6-4.8-4.5c-12.1-12.4-28.8-18.9-47.3-18.9-37.3 0-67.7 30.3-67.7 67.7 0 37.6 30.3 68.2 67.7 68.2 18.9 0 36.2-7.6 49.5-21.2v-41.9h-55.2v-37.6h92.3v92.9l-1.4 1.7c-20.3 27.4-52.1 43.6-85.2 43.6zm207.2-.2c-58.0 0-105.3-47.0-105.3-105.1 0-58.3 47.3-105.6 105.3-105.6 58.3 0 105.6 47.3 105.6 105.6 0 58.0-47.3 105.1-105.6 105.1zm0-173.0c-37.1 0-67.4 30.3-67.4 67.9 0 37.3 30.3 67.7 67.4 67.7s67.4-30.3 67.4-67.7c0-37.6-30.3-67.9-67.4-67.9zm265.9 170.2H514.6v-201.7h37.9v164.6h102.8v37.1zm82.0 0h-67.7v-201.7h67.7c56.9 0 103.4 45.3 103.4 100.8s-46.4 100.8-103.4 100.8zm-30.0-37.1h30.0c36.2 0 65.7-28.6 65.7-63.7s-29.4-63.7-65.7-63.7h-30.0v127.4zm238.4 37.1h-88.3v-201.7h74.7c13.5 0 26.9 5.6 36.2 15.2 9.6 9.3 15.2 22.6 15.2 36.2 0 8.2-1.9 15.8-5.1 22.6 5.3 3.1 10.4 6.7 14.7 11.3 13.0 12.7 20.1 29.7 20.1 47.8s-7.0 35.1-20.1 48.1c-6.2 6.2-13.5 11.3-21.8 14.7-8.2 3.6-16.9 5.3-25.7 5.3zm-50.7-37.1h50.4c16.7-.5 30.3-14.4 30.3-31.1 0-16.4-13.5-30.3-30.0-30.5H895.2v61.7zm0-98.8h36.8c7.9 0 14.1-6.5 14.1-14.1s-6.2-13.8-14.1-14.4h-36.8v28.6zm263.3 135.9h-130.3v-201.7h132.8v36.8h-94.9v29.7h82.7v37.6h-82.7v60.0h92.3v37.3zm193.9 0h-44.7l-71.6-98.5h-16.1v98.5h-36.8v-201.7h72.2c13.5 0 26.3 5.3 36.2 15.2s15.2 22.6 15.2 36.2c0 20.1-11.9 38.2-29.4 46.7zm-132.5-135.4h35.4c7.9 0 14.7-6.5 14.7-14.7s-6.8-14.7-14.7-14.7h-35.4v29.4zm219.1 138.5c-58.0 0-105.3-47.3-105.3-105.6 0-58.0 47.3-105.3 105.3-105.3 14.1 0 28.0 2.8 40.7 8.2s24.3 13.0 33.9 22.9l5.3 5.3-28.0 24.6-4.8-4.5c-12.1-12.4-28.8-18.9-47.3-18.9-37.3 0-67.7 30.3-67.7 67.7 0 37.6 30.3 68.2 67.7 68.2 18.9 0 36.2-7.6 49.5-21.2v-41.9h-55.2v-37.6h92.3v92.9l-1.4 1.7c-20.3 27.4-52.1 43.6-85.2 43.6z" fill="#c2bd3b"/>
  <path d="M242.3 3076.8h-17.5v-45.3h-37.9v45.3H169.1v-93.5h17.5v30.9h37.9v-30.9h17.5v93.5zm88.7 0H270.6v-93.5h61.5v17.0H288.2v13.7h38.3v17.4h-38.3v27.8h42.8v17.3zm46.6 0h-17.5v-93.5h17.5v93.5zm98.8 0h-65.2v-93.5h17.5v76.2h47.6v17.2zm38.6 0h-17.4v-93.5h33.4c6.4 0 12.4 2.4 17.0 7.0 4.4 4.5 7.0 10.5 7.0 16.9 0 13.2-10.9 23.9-24.1 23.9H515.2v45.5zm0-62.7h16.0c3.6 0 6.5-3.0 6.5-6.6s-3.0-6.8-6.5-6.8H515.2v13.5zm139.6 62.7h-20.7l-33.2-45.7h-7.4v45.7h-17.0v-93.5h33.4c6.3 0 12.2 2.4 16.8 7.0s7.0 10.5 7.0 16.8c0 9.3-5.5 17.7-13.6 21.6zm-61.4-62.7h16.4c3.6 0 6.8-3.0 6.8-6.8s-3.1-6.8-6.8-6.8h-16.4v13.6zm159.7 62.7h-18.9l-9.5-25.2h-30.9l-9.7 25.2h-18.7l35.9-93.5h15.8zm-52.6-42.5h17.3l-8.6-22.7zm162.2 42.5h-21.9l-34.8-48.8-14.9 14.1v34.6h-17.4v-93.5h17.4v35.0l37.2-35.0h25.2l-34.2 32.4zm46.8 0h-17.5v-76.1h-22.9v-17.3h63.5v17.3h-22.9v76.1zm69.1 0h-17.5v-93.5h17.5v93.5zm122.7 0h-21.9l-34.8-48.8-14.9 14.1v34.6h-17.4v-93.5h17.4v35.0l37.2-35.0h25.2l-34.2 32.4zm81.4 0h-60.4v-93.5h61.5v17.0h-43.9v13.7h38.3v17.4h-38.3v27.8h42.8v17.3zm103.1 0h-20.7l-33.2-45.7h-7.4v45.7h-17.0v-93.5h33.4c6.3 0 12.2 2.4 16.8 7.0s7.0 10.5 7.0 16.8c0 9.3-5.5 17.7-13.6 21.6zm-61.4-62.7h16.4c3.6 0 6.8-3.0 6.8-6.8s-3.1-6.8-6.8-6.8h-16.4v13.6zm100.1 62.7h-17.5v-93.5h17.5v93.5zm108.9 0h-16.9l-41.4-61.3v61.3h-17.5v-93.5h17.0l41.3 61.1v-61.1h17.5v93.5z" fill="#1f8776"/>
</svg>
